<svg width="16" height="16" viewBox="0 0 16 16" fill="none" xmlns="http://www.w3.org/2000/svg">
<path d="M5.33333 5.83333H5.83333V5.33333V1.77778V1.27778H5.33333H1.77778H1.27778V1.77778V5.33333V5.83333H1.77778H5.33333ZM5.33333 14.7222H5.83333V14.2222V10.6667V10.1667H5.33333H1.77778H1.27778V10.6667V14.2222V14.7222H1.77778H5.33333ZM14.2222 5.83333H14.7222V5.33333V1.77778V1.27778H14.2222H10.6667H10.1667V1.77778V5.33333V5.83333H10.6667H14.2222ZM14.2222 14.7222H14.7222V14.2222V10.6667V10.1667H14.2222H10.6667H10.1667V10.6667V14.2222V14.7222H10.6667H14.2222ZM6.61111 6.61111H0.5V0.5H6.61111V6.61111ZM6.61111 15.5H0.5V9.38889H6.61111V15.5ZM15.5 6.61111H9.38889V0.5H15.5V6.61111ZM15.5 15.5H9.38889V9.38889H15.5V15.5Z" fill="#323232" stroke="black"/>
</svg>
